<?xml version="1.0" encoding="utf-8" ?><svg xmlns="http://www.w3.org/2000/svg" xmlns:xlink="http://www.w3.org/1999/xlink" width="1536" height="1024" viewBox="0 0 1536 1024"><path fill="#1A1C34" d="M96.884 421.146C111.989 412.357 133.689 403.953 149.956 396.405L257.59 346.937C267.235 342.517 291.456 329.562 300.276 328.162C312.714 326.189 327.329 327.455 340.018 327.524L408.137 327.651L664.206 327.955L1113.5 327.934L1206.08 327.91C1217.11 327.884 1242.57 326.126 1252.03 328.676C1259.16 330.597 1266.46 334.545 1273.18 337.617L1306.13 352.614L1427.49 406.781C1433.69 409.549 1461.28 420.404 1464.43 423.906C1466.88 424.604 1469.86 425.247 1471.15 427.699C1471.64 428.647 1471.52 428.857 1471.47 429.865C1472.83 431.995 1473.33 434.108 1472.79 436.67C1472.28 439.092 1470.59 440.94 1468.51 442.171C1461.88 446.099 1448.06 441.034 1444.92 450.282C1443.88 453.358 1445.35 457 1446.95 459.648C1453.66 470.776 1475.12 466.403 1470.78 485.403C1470.24 487.77 1468.88 489.831 1466.72 491.019C1459.62 494.911 1449.09 487.331 1445.55 498.177C1444.72 500.738 1444.65 503.431 1446.09 505.794C1452.43 516.219 1474.51 514.529 1471.36 531.22C1470.84 533.978 1469.53 536.54 1467.13 538.107C1460.49 542.451 1448.33 534.055 1445.38 545.256C1444.62 548.157 1444.68 551.113 1446.26 553.737C1453.02 564.918 1473.89 561.464 1470.63 579.62C1470.17 582.175 1468.71 584.483 1466.49 585.872C1459.87 590.015 1448.03 582.751 1445.18 593.374C1442.96 601.662 1448.58 621.709 1441.1 626.848C1436.89 629.746 1429.64 628.366 1424.81 629.298C1426.04 632.648 1425.19 749.439 1424.85 761.162C1424.76 764.258 1424.95 768.355 1423.7 771.189C1422.75 773.334 1420.98 774.69 1418.77 775.385C1418.55 775.452 1418.33 775.49 1418.12 775.542C1414.49 778.635 1403.98 778.497 1399.22 778.795C1379.51 780.03 1359.4 779.299 1339.62 779.318L1236.1 779.479L904.892 779.655L417.593 779.448L250.544 779.384C220.027 779.37 189.361 779.969 158.861 779.121C151.088 778.905 140.151 779.064 134.171 773.323C132.32 771.546 131.704 769.369 131.412 766.897C129.757 752.854 131.073 733.784 131.043 719.375L130.471 628.306C126.359 628.214 118.419 629.001 114.976 626.602C109.236 622.602 112.149 601.185 110.941 594.215C108.513 580.209 95.4888 590.891 88.0446 585.26C85.8981 583.636 85.1225 580.074 84.788 577.522C82.9804 563.732 102.297 562.329 108.831 553.059C110.25 551.047 110.787 548.742 110.266 546.323C107.12 531.695 94.9744 542.692 87.9094 537.199C85.3481 535.207 84.1624 531.813 83.9816 528.662C83.2288 515.546 99.6585 515.138 106.174 506.879C107.938 504.643 109.327 501.747 108.812 498.833C108.082 494.699 105.191 492.304 101.875 490.192C98.5929 491.042 93.6067 491.588 90.2872 490.882C87.069 490.197 85.7689 489.122 83.9778 486.4C82.7995 484.237 82.1776 480.5 82.542 478.11C83.7296 470.321 97.2849 465.902 103.028 461.684C105.749 459.685 108.576 456.952 108.964 453.42C109.271 450.626 107.91 447.51 106.145 445.376C103.042 441.624 95.6737 443.773 91.4102 443.272C88.665 442.949 86.8603 442.121 85.1777 439.901C85.0743 439.765 84.977 439.624 84.8766 439.485C84.4499 438.916 84.08 438.417 83.8144 437.75C82.7976 435.197 82.364 432.12 83.6803 429.598C86.1242 424.915 92.2386 422.771 96.884 421.146Z"/><defs><linearGradient id="gradient_0" gradientUnits="userSpaceOnUse" x1="792.28448" y1="524.05658" x2="752.3764" y2="260.46558"><stop offset="0" stop-color="#4A5D7C"/><stop offset="1" stop-color="#677085"/></linearGradient></defs><path fill="url(#gradient_0)" d="M96.884 421.146C111.989 412.357 133.689 403.953 149.956 396.405L257.59 346.937C267.235 342.517 291.456 329.562 300.276 328.162C312.714 326.189 327.329 327.455 340.018 327.524L408.137 327.651L664.206 327.955L1113.5 327.934L1206.08 327.91C1217.11 327.884 1242.57 326.126 1252.03 328.676C1259.16 330.597 1266.46 334.545 1273.18 337.617L1306.13 352.614L1427.49 406.781C1433.69 409.549 1461.28 420.404 1464.43 423.906C1463.79 424.391 1463.39 424.562 1462.58 424.592C1436.03 425.563 1409.01 424.577 1382.41 424.567L1221.02 424.535L748.08 424.82L654.376 424.756C637.425 424.716 620.363 424.175 603.423 424.685C525.556 423.741 447.588 424.542 369.709 424.548C296.183 424.553 222.539 423.707 149.027 424.73C136.442 423.716 122.609 424.329 109.962 424.671C104.305 424.824 96.8589 426.167 91.4813 424.898C93.2244 423.559 95.0545 422.362 96.884 421.146Z"/><path fill="#246A97" d="M565.777 392.934C575.986 391.132 586.617 391.884 596.947 391.516C631.065 390.302 665.238 390.779 699.374 390.466C757.506 389.61 815.646 389.439 873.782 389.954C888.97 389.95 904.157 390.067 919.343 390.304C926.683 390.399 934.458 389.984 941.731 390.956C961.591 390.87 981.623 390.234 1001.46 390.953C1015.79 390.656 1029.9 387.558 1041.14 398.449C1043 400.259 1049.33 405.8 1049.14 408.332C1049.13 408.519 1049.04 408.695 1049 408.876L1048.61 410.536C1042.92 412.705 980.004 413.036 973.106 411.344L798.592 412.089L732.216 412.01C721.369 412.001 710.149 411.403 699.339 412.07C685.24 414.374 658.556 412.691 643.254 412.695C623.195 412.783 603.135 412.673 583.078 412.366C574.962 412.226 565.74 412.859 557.799 411.489C555.618 411.112 554.005 410.395 552.681 408.585C552.993 406.605 553.192 406.609 554.613 405.335C558.655 401.957 561.757 396.675 565.777 392.934Z"/><path fill="#34C1E3" d="M699.339 412.07C685.24 414.374 658.556 412.691 643.254 412.695C623.195 412.783 603.135 412.673 583.078 412.366C574.962 412.226 565.74 412.859 557.799 411.489C555.618 411.112 554.005 410.395 552.681 408.585C552.993 406.605 553.192 406.609 554.613 405.335L556.652 405.945L555.38 408.782C557.78 410.444 591.604 409.888 596.231 409.549C598.762 409.944 601.369 410.577 603.918 410.147C608.426 407.439 948.473 409.263 987.221 408.766C991.26 408.729 996.132 408.156 999.998 409.384L999.66 410.061C990.821 410.719 981.967 411.147 973.106 411.344L798.592 412.089L732.216 412.01C721.369 412.001 710.149 411.403 699.339 412.07Z"/><path fill="#24406C" d="M699.339 412.07C685.24 414.374 658.556 412.691 643.254 412.695C623.195 412.783 603.135 412.673 583.078 412.366C574.962 412.226 565.74 412.859 557.799 411.489C555.618 411.112 554.005 410.395 552.681 408.585C552.993 406.605 553.192 406.609 554.613 405.335L556.652 405.945L555.38 408.782C557.78 410.444 591.604 409.888 596.231 409.549C598.762 409.944 601.369 410.577 603.918 410.147C635.502 412.908 667.64 412.017 699.339 412.07Z"/><defs><linearGradient id="gradient_1" gradientUnits="userSpaceOnUse" x1="1032.629" y1="395.63239" x2="1012.2225" y2="409.81995"><stop offset="0" stop-color="#455978"/><stop offset="1" stop-color="#636E88"/></linearGradient></defs><path fill="url(#gradient_1)" d="M1001.19 397.266C1011.61 396.843 1029.4 394.186 1037.76 401.802C1039.74 403.605 1042.87 406.865 1042.97 409.483C1045.21 409.681 1046.95 410.023 1049 408.876L1048.61 410.536C1042.92 412.705 980.004 413.036 973.106 411.344C981.967 411.147 990.821 410.719 999.66 410.061L1001.24 409.648L1001.72 409.428C1002.98 408.87 1004.06 408.493 1005.41 408.226C1006.94 407.926 1007.46 407.477 1008.54 406.39C1008.63 404.516 1008 404.248 1006.8 402.93C1005.02 400.958 1003.1 399.115 1001.19 397.266Z"/><path fill="#252E50" d="M1042.97 409.483C1045.21 409.681 1046.95 410.023 1049 408.876L1048.61 410.536C1042.92 412.705 980.004 413.036 973.106 411.344C981.967 411.147 990.821 410.719 999.66 410.061L1001.24 409.648C1014.91 408.779 1029.31 408.221 1042.97 409.483Z"/><path fill="#445A7E" d="M556.652 405.945C559.59 402.043 562.283 396.65 567.442 395.894C574.955 394.794 595.097 394.313 601.553 397.421C601.721 401.498 595.375 404.372 596.231 409.549C591.604 409.888 557.78 410.444 555.38 408.782L556.652 405.945Z"/><path fill="#5F6D89" d="M577.317 397.218C584.896 397.125 592.487 397.221 600.068 397.23C598.143 400.591 596.152 405.031 593.413 407.739C591.863 409.271 591.053 408.897 588.937 408.901C581.54 408.854 574.126 408.9 566.735 408.59C568.579 405.884 570.024 402.891 571.916 400.243C573.604 397.878 574.604 397.75 577.317 397.218Z"/><path fill="#24406C" d="M941.731 390.956C961.591 390.87 981.623 390.234 1001.46 390.953C1015.79 390.656 1029.9 387.558 1041.14 398.449C1043 400.259 1049.33 405.8 1049.14 408.332C1049.13 408.519 1049.04 408.695 1049 408.876C1046.95 410.023 1045.21 409.681 1042.97 409.483C1042.87 406.865 1039.74 403.605 1037.76 401.802C1029.4 394.186 1011.61 396.843 1001.19 397.266C1003.1 399.115 1005.02 400.958 1006.8 402.93C1008 404.248 1008.63 404.516 1008.54 406.39C1007.46 407.477 1006.94 407.926 1005.41 408.226C1004.06 408.493 1002.98 408.87 1001.72 409.428L1001.24 409.648L999.66 410.061L999.998 409.384C996.132 408.156 991.26 408.729 987.221 408.766L978.169 407.561C982.539 405.311 999.068 410.07 1003.5 405.977C1004.36 405.18 1004.05 404.701 1004.04 403.604C1002.56 401.387 1000.89 399.228 998.215 398.424C994.359 397.264 988.427 398.135 984.354 398.115C976.275 398.074 960.169 397.797 952.657 395.469C956.434 394.938 960.472 395.559 964.278 395.735C971.064 396.049 997.486 398.134 1001.75 394.251C1000.05 392.608 998.79 392.581 996.584 392.08C996.394 392.135 996.206 392.194 996.015 392.246C995.698 392.332 995.377 392.403 995.062 392.496C993.986 392.814 993.02 393.194 991.878 393.202C986.392 393.241 980.779 392.207 975.269 392.006C965.914 391.665 950.179 393.321 941.731 390.956Z"/><path fill="#252E50" d="M133.135 419.741C139.023 419.553 144.884 419.784 150.768 419.989C147.261 421.428 144.142 422.423 140.381 422.934C135.121 422.869 130.024 422.89 124.865 421.696L124.804 421.078C127.486 420.099 130.315 419.981 133.135 419.741Z"/><path fill="#101830" d="M1413.68 419.727C1414.14 419.687 1414.6 419.643 1415.07 419.62C1418.63 419.439 1428.45 418.857 1431.06 421.237C1429.54 422.473 1427.55 422.333 1425.68 422.437C1421.55 423.404 1414.89 422.936 1410.99 421.33L1411.04 420.516L1413.68 419.727Z"/><path fill="#101830" d="M316.673 329.685C321.975 328.879 332.012 328.285 336.75 330.453C331.603 331.335 321.193 332.108 316.673 329.685Z"/><path fill="#252E50" d="M84.8766 439.485C84.4499 438.916 84.08 438.417 83.8144 437.75C82.7976 435.197 82.364 432.12 83.6803 429.598C86.1242 424.915 92.2386 422.771 96.884 421.146C95.0545 422.362 93.2244 423.559 91.4813 424.898C96.8589 426.167 104.305 424.824 109.962 424.671C122.609 424.329 136.442 423.716 149.027 424.73C222.539 423.707 296.183 424.553 369.709 424.548C447.588 424.542 525.556 423.741 603.423 424.685C620.363 424.175 637.425 424.716 654.376 424.756L748.08 424.82L1221.02 424.535L1382.41 424.567C1409.01 424.577 1436.03 425.563 1462.58 424.592C1463.39 424.562 1463.79 424.391 1464.43 423.906C1466.88 424.604 1469.86 425.247 1471.15 427.699C1471.64 428.647 1471.52 428.857 1471.47 429.865C1471.36 433.166 1471.61 437.854 1469.02 440.325C1466.92 442.325 1461.43 442.023 1458.55 442.123C1449.71 442.431 1440.74 441.801 1431.89 441.724L1380.6 441.612L1203.16 441.624L674.467 442.168L409.516 441.766C365.527 441.797 321.185 440.686 277.239 441.979C238.694 441.331 200.078 441.981 161.523 441.959C148.659 441.952 117.584 440.35 106.742 442.567C101.402 441.476 91.9748 442.806 87.5619 440.148C86.5532 439.54 86.1099 439.438 84.8766 439.485Z"/><path fill="#101830" d="M149.027 424.73C222.539 423.707 296.183 424.553 369.709 424.548C447.588 424.542 525.556 423.741 603.423 424.685C594.767 426.906 582.512 425.397 573.509 425.394L513.861 425.384L263.311 425.341C233.506 425.288 203.772 426.281 173.987 425.554C165.831 425.355 157.052 426.331 149.027 424.73Z"/><path fill="#090A14" d="M1418.12 775.542C1418.79 774.83 1419.45 774.107 1420.09 773.372C1421.33 771.951 1422.3 770.987 1422.57 769.044C1425.1 750.841 1423.53 720.387 1423.52 700.775C1423.52 677.596 1424.9 652.906 1423.33 629.937L1424.81 629.298C1426.04 632.648 1425.19 749.439 1424.85 761.162C1424.76 764.258 1424.95 768.355 1423.7 771.189C1422.75 773.334 1420.98 774.69 1418.77 775.385C1418.55 775.452 1418.33 775.49 1418.12 775.542Z"/><path fill="#090A14" d="M83.9778 486.4C84.8912 486.791 85.7871 487.131 86.6283 487.662C91.1995 490.547 97.8052 487.646 101.875 490.192C98.5929 491.042 93.6067 491.588 90.2872 490.882C87.069 490.197 85.7689 489.122 83.9778 486.4Z"/><path fill="#090A14" d="M665.936 469.104C685.091 468.611 704.35 469.001 723.518 468.997L828.335 468.937L1156.73 468.878L1282.52 468.82C1293.87 468.815 1323.91 467.239 1333.78 469.617C1335.87 470.122 1337.61 471.715 1338.64 473.597C1341.62 479.028 1340.81 571.743 1340.17 584.283C1339.99 587.887 1339.61 591.408 1338.57 594.874C1335.21 598.244 1332.18 598.624 1327.67 599.111C1321.62 599.536 1315.27 598.876 1309.18 598.759L1275.32 598.314C1242.08 597.927 1208.84 597.805 1175.6 597.95C1049.11 597.461 922.615 597.686 796.125 598.624L718.845 598.699C703.415 598.781 687.466 599.823 672.093 598.912C669.005 598.728 665.698 598.186 662.921 596.752C660.191 595.343 659.298 593.963 658.43 591.074C655.826 582.404 656.147 491.516 657.409 478.155C657.554 476.62 658.042 474.963 658.844 473.639C660.434 471.015 663.132 469.921 665.936 469.104Z"/><path fill="#121419" d="M782.614 474.848L1147.76 474.757C1206.49 474.727 1265.46 473.451 1324.15 474.604C1326.09 474.642 1328.68 474.504 1330.21 475.706C1331.82 476.574 1332.72 476.843 1333.24 478.779C1335.32 486.511 1333.7 533.274 1333.68 544.437C1333.66 558.05 1334.59 572.031 1333.84 585.594C1333.7 588.181 1333.47 590.454 1332.22 592.767C1328.32 594.177 1323.72 594.069 1319.6 594.117C1265.52 594.737 1211.39 594.257 1157.3 594.288L870.895 594.538L736.18 594.588C716.018 594.59 686.277 596.22 667.204 593.337C665.517 591.896 665.237 590.138 664.866 587.999C662.401 573.775 664.297 548.263 664.312 532.713C664.326 517.333 663.136 496.753 664.258 481.972C664.432 479.684 664.817 477.687 666.167 475.77C669.788 473.751 770.062 474.316 782.614 474.848Z"/><path fill="#1A1C34" d="M782.614 474.848L1147.76 474.757C1206.49 474.727 1265.46 473.451 1324.15 474.604C1326.09 474.642 1328.68 474.504 1330.21 475.706L1329.61 476.082C1293.31 476.559 1256.94 476.102 1220.62 476.215L926.309 476.532L824.949 476.46C814.3 476.456 791.145 477.851 782.282 475.865L782.614 474.848Z"/><path fill="#246A97" d="M822.117 495.384C837.575 495.27 896.886 492.496 907.433 498.831C912.358 501.79 915.286 506.93 916.505 512.431C918.07 519.493 916.947 527.008 912.93 533.085C909.234 538.678 903.336 540.782 897.054 542.023C905.244 554.585 914.163 566.797 922.647 579.173C918.887 579.246 914.942 579.539 911.198 579.245C908.989 579.072 908.621 578.975 907.163 577.324L885.226 542.642C867.861 542.273 850.443 542.524 833.073 542.496L833.066 579.131L822 579.167L822.117 495.384Z"/><path fill="#121419" d="M833.067 504.145C847.854 504.756 890.168 501.186 900.501 508.752C903.032 510.605 905.198 513.412 905.457 516.632C905.831 521.301 903.247 526.412 900.4 529.932C890.821 536.591 846.999 533.874 833.098 533.836L833.067 504.145Z"/><path fill="#246A97" d="M1138.99 495.291L1153.93 495.439C1154.35 496.247 1154.65 496.845 1154.85 497.746C1156.01 503.24 1155.65 568.126 1154.94 575.844C1154.83 577.093 1154.41 578.109 1153.75 579.156L1142.83 579.125C1143.26 578.325 1143.57 577.773 1143.75 576.869C1144.78 571.552 1144.6 526.393 1142.64 523.204C1142.96 522.693 1143.1 522.513 1143.32 521.995C1145.03 518.021 1144.02 512.603 1142.46 508.759C1142.53 509.44 1142.59 509.67 1142.53 510.308C1142.14 514.151 1107.08 576.772 1104.27 579.186L1092.35 579.21C1092.41 578.643 1092.48 578.388 1092.31 577.77C1090.75 572.085 1060.37 518.783 1056.16 512.14C1055.1 510.463 1053.84 509.175 1052.23 508.024C1052.32 508.193 1052.4 508.366 1052.5 508.531C1053.09 509.518 1053.63 510.429 1053.89 511.568C1055.44 518.404 1055.16 575.621 1053.11 579.163L1041.62 579.123C1044.15 574.364 1043.54 505.036 1042.72 495.488C1047.5 495.277 1052.31 495.345 1057.1 495.294C1057.4 495.553 1057.7 495.819 1057.99 496.099C1062.11 500.158 1098.23 564.659 1098.23 567.851C1098.73 567.484 1099.18 567.139 1099.61 566.688C1104.33 561.704 1139.03 499.447 1138.99 495.291Z"/><path fill="#246A97" d="M939.759 495.328L1022.17 495.265L1022.13 504.488C998.443 504.778 974.695 504.35 951.002 504.224L950.985 531.81L990.209 531.723C997.111 531.706 1004.98 530.845 1011.71 532.221C1012.69 534.575 1012.39 537.218 1012.35 539.73C1011.99 540.011 1011.72 540.453 1011.28 540.572C1009.05 541.178 978.514 540.292 973.312 540.279L950.999 540.206L951.012 570.017L1022.18 570.028L1022.2 579.128L939.718 579.155L939.759 495.328Z"/><path fill="#121419" d="M227.225 514.626L340.507 515.318C350.858 515.45 369.489 513.873 378.557 515.72C380.09 516.032 381.315 517.005 382.136 518.324C385.045 523.003 383.854 531.802 382.484 536.834C381.542 540.294 380.069 541.425 377.119 543.133L266.694 543.141C256.538 543.141 232.554 544.529 223.664 542.727C223.061 542.063 222.455 541.359 222.043 540.556C220.154 536.877 220.509 523.363 221.807 519.355C222.713 516.557 224.769 515.797 227.225 514.626Z"/><path fill="#090A14" d="M299.282 523.331C301.939 521.608 305.489 522.357 307.223 525.008C308.957 527.659 308.222 531.213 305.579 532.958C302.92 534.713 299.342 533.972 297.599 531.306C295.855 528.64 296.61 525.064 299.282 523.331Z"/><path fill="#090A14" d="M233.596 522.654C236.346 521.509 239.512 522.687 240.845 525.351C242.177 528.014 241.222 531.255 238.658 532.77C236.833 533.848 234.56 533.818 232.764 532.692C230.969 531.566 229.951 529.532 230.126 527.42C230.302 525.307 231.64 523.469 233.596 522.654Z"/><path fill="#090A14" d="M254.839 523.25C256.593 522.205 258.774 522.185 260.547 523.198C262.321 524.211 263.412 526.1 263.404 528.142C263.396 530.185 262.29 532.065 260.509 533.064C257.805 534.581 254.384 533.642 252.832 530.956C251.28 528.271 252.175 524.837 254.839 523.25Z"/><path fill="#090A14" d="M366.546 522.613C369.593 522.344 372.294 524.566 372.618 527.609C372.941 530.651 370.768 533.392 367.732 533.77C365.719 534.02 363.729 533.165 362.525 531.532C361.321 529.9 361.092 527.745 361.926 525.896C362.76 524.046 364.526 522.791 366.546 522.613Z"/><path fill="#090A14" d="M323.537 522.561C326.524 522.269 329.211 524.382 329.633 527.354C330.055 530.326 328.062 533.104 325.111 533.655C323.085 534.033 321.015 533.269 319.72 531.664C318.425 530.06 318.115 527.875 318.912 525.973C319.709 524.072 321.485 522.762 323.537 522.561Z"/><path fill="#090A14" d="M278.417 522.561C281.385 522 284.261 523.897 284.914 526.847C285.567 529.796 283.76 532.731 280.833 533.475C278.857 533.978 276.765 533.365 275.372 531.875C273.98 530.386 273.508 528.256 274.142 526.318C274.776 524.379 276.414 522.94 278.417 522.561Z"/><path fill="#090A14" d="M342.907 523.435C344.661 522.338 346.877 522.3 348.668 523.336C350.458 524.372 351.53 526.312 351.454 528.38C351.377 530.447 350.165 532.304 348.303 533.205C345.631 534.497 342.415 533.475 340.98 530.876C339.544 528.277 340.391 525.01 342.907 523.435Z"/><path fill="#121419" d="M444.725 514.344C456.271 516.984 474.332 515.41 486.66 515.408L570.143 515.304C580.806 515.278 593.631 513.924 603.957 516.315C605.555 517.692 605.976 518.242 606.532 520.386C608.071 526.319 607.241 536.943 604.075 542.14C603.933 542.204 603.793 542.273 603.649 542.332C599.436 544.045 469.81 543.582 456.44 543.043C452.814 542.896 448.867 542.737 445.465 541.404C443.862 539.798 443.23 538.324 442.792 536.103C441.65 530.318 441.4 519.256 444.725 514.344Z"/><path fill="#090A14" d="M478.018 523.269C480.69 521.715 484.114 522.564 485.751 525.187C487.388 527.811 486.647 531.26 484.077 532.979C482.341 534.139 480.111 534.263 478.258 533.301C476.405 532.339 475.223 530.444 475.173 528.356C475.123 526.269 476.213 524.319 478.018 523.269Z"/><path fill="#090A14" d="M456.817 522.672C459.764 521.749 462.909 523.341 463.911 526.263C464.913 529.184 463.407 532.372 460.514 533.453C458.572 534.178 456.39 533.792 454.815 532.444C453.24 531.096 452.521 528.999 452.937 526.968C453.353 524.937 454.839 523.292 456.817 522.672Z"/><path fill="#090A14" d="M500.956 523.268C502.806 522.15 505.131 522.18 506.951 523.347C508.771 524.514 509.769 526.614 509.525 528.762C509.281 530.911 507.837 532.734 505.802 533.463C503.06 534.445 500.019 533.19 498.769 530.558C497.518 527.927 498.463 524.775 500.956 523.268Z"/><path fill="#090A14" d="M547.008 522.683C549.877 522.223 552.627 524.011 553.374 526.819C554.12 529.627 552.619 532.545 549.901 533.57C547.881 534.333 545.603 533.879 544.029 532.401C542.455 530.923 541.859 528.678 542.492 526.614C543.124 524.549 544.876 523.024 547.008 522.683Z"/><path fill="#090A14" d="M523.526 523.376C525.273 522.267 527.488 522.213 529.288 523.234C531.087 524.254 532.177 526.184 532.123 528.253C532.068 530.321 530.878 532.191 529.028 533.116C526.36 534.448 523.117 533.457 521.65 530.86C520.183 528.264 521.008 524.973 523.526 523.376Z"/><path fill="#090A14" d="M569.26 522.639C572.249 522.442 574.855 524.651 575.151 527.632C575.448 530.613 573.328 533.293 570.359 533.689C568.349 533.958 566.351 533.108 565.149 531.473C563.948 529.838 563.733 527.678 564.589 525.838C565.445 523.998 567.236 522.772 569.26 522.639Z"/><path fill="#090A14" d="M588.812 523.296C591.522 522.083 594.704 523.25 595.99 525.926C597.275 528.603 596.196 531.817 593.556 533.175C591.783 534.087 589.655 533.964 587.999 532.854C586.343 531.744 585.419 529.822 585.589 527.835C585.758 525.848 586.992 524.11 588.812 523.296Z"/><path fill="#121419" d="M373.3 664.937C393.878 663.763 415.036 664.726 435.677 664.73L559.91 665.005C574.136 665.054 658.131 663.781 664.004 665.827C665.296 666.277 666.39 667.599 666.863 668.847C667.57 670.71 667.172 673.221 666.275 674.958C665.227 676.988 663.383 676.963 661.382 677.434C639.286 677.998 374.265 678.52 370.54 676.936C368.878 676.229 367.693 674.922 367.209 673.174C366.727 671.432 367.223 669.18 368.262 667.727C369.551 665.923 371.231 665.4 373.3 664.937Z"/><path fill="#121419" d="M1424.9 518.331L1424.68 519.195C1421.61 520.579 1418.25 520.76 1414.93 521.015C1407.2 521.608 1371.05 523.239 1366.68 518.558C1363.91 515.59 1364.33 475.563 1365 470.017C1365.29 467.619 1366.04 463.907 1368.15 462.493C1374.88 457.975 1412.92 457.871 1420.8 460.413C1423.01 461.129 1423.77 462.145 1424.75 464.2C1427.42 469.76 1427.83 509.943 1425.68 515.786C1425.62 515.94 1425.55 516.089 1425.49 516.241L1424.9 518.331Z"/><path fill="#090A14" d="M1424.9 518.331L1424.68 519.195C1421.61 520.579 1418.25 520.76 1414.93 521.015C1407.2 521.608 1371.05 523.239 1366.68 518.558C1363.91 515.59 1364.33 475.563 1365 470.017C1365.29 467.619 1366.04 463.907 1368.15 462.493C1374.88 457.975 1412.92 457.871 1420.8 460.413C1423.01 461.129 1423.77 462.145 1424.75 464.2C1427.42 469.76 1427.83 509.943 1425.68 515.786C1425.62 515.94 1425.55 516.089 1425.49 516.241C1425.46 516.07 1425.42 515.899 1425.39 515.728C1423.38 504.984 1428.59 470.588 1421.8 464.175C1417.22 462.613 1375.76 462.944 1370.49 464.861C1364.19 471.257 1370.99 510.47 1367.13 518.079C1380.55 518.752 1412.72 520.788 1424.6 517.414L1424.9 518.331Z"/><path fill="#246A97" d="M1386.57 481.239L1389.49 481.27C1390.07 482.9 1388.43 491.732 1389.11 495.613C1389.59 498.391 1390.47 500.462 1392.81 502.126C1394.34 502.535 1395.37 502.556 1396.89 502.036C1407.42 498.431 1401.54 488.942 1404.93 481.521C1406.26 482 1407.19 483.022 1408.07 484.099C1409.78 486.16 1410.02 487.76 1409.73 490.245C1410.09 490.957 1410.07 490.874 1410.37 491.744C1411.38 494.703 1410.49 499.239 1408.91 501.852C1406.98 505.033 1403.58 507.069 1400.03 507.943C1395.81 508.951 1391.37 508.181 1387.74 505.816C1384.52 503.726 1382.51 500.586 1381.81 496.831C1380.64 490.545 1383.16 486.222 1386.57 481.239Z"/><path fill="#246A97" d="M1394.11 478.235C1395.67 478.206 1395.98 478.008 1397.25 479.015C1398.22 483.131 1398.53 488.712 1396.74 492.601L1396.31 493.034L1395.03 492.793C1393.33 489.403 1394.23 482.173 1394.11 478.235Z"/><path fill="#121419" d="M390.574 687.543C414.749 686.522 659.732 686.915 663.137 688.187C664.485 688.69 665.205 689.702 665.687 691.002C666.474 693.127 666.307 695.968 665.37 697.987C661.555 701.451 653.094 700.133 648.187 700.037L463.942 700.048L403.336 700.024C395.369 700.026 387.203 700.612 379.27 700.28C376.281 700.155 372.952 699.413 370.32 697.95C368.276 696.814 366.935 695.716 366.287 693.437C366.666 692.233 366.736 691.783 367.66 690.926C373.238 685.756 383.571 687.463 390.574 687.543Z"/><path fill="#121419" d="M371.512 709.851C393.854 708.688 416.623 709.571 439.022 709.574L566.29 709.601L632.705 709.592C640.599 709.594 655.898 708.196 662.8 710.172C664.541 710.671 665.823 711.894 666.524 713.55C667.37 715.546 666.983 717.205 666.121 719.095C664.568 720.47 664.276 720.694 662.245 721.039C660.042 721.261 657.832 721.407 655.619 721.476C636.508 722.221 617.152 721.675 598.019 721.672L492.241 721.638L414.099 721.624C400.983 721.566 387.293 722.139 374.235 721.016C372.202 720.841 369.687 720.057 368.279 718.494C366.872 716.931 366.985 715.845 366.991 713.887C368.014 711.629 369.448 710.967 371.512 709.851Z"/><path fill="#121419" d="M370.509 731.353C432.652 730.53 494.904 731.305 557.058 731.262L626.673 731.249C637.373 731.256 648.626 730.508 659.264 731.309C661.107 731.448 662.697 732.276 664.008 733.565C665.734 735.263 666.188 737.008 666.229 739.358C665.263 741.527 665.084 741.61 662.99 742.757L662.477 742.824C648.712 744.489 633.776 743.43 619.861 743.424L539.205 743.285L427.226 743.282C410.602 743.256 393.59 744.052 377.013 743.205C374.458 743.075 371.001 742.616 369.034 740.906C367.826 739.855 367.334 738.783 367.299 737.157C367.25 734.825 369.074 732.979 370.509 731.353Z"/><path fill="#090A14" d="M1367.65 545.007C1377.68 543.987 1414.93 543.118 1423.39 545.714C1424.2 546.399 1424.66 546.913 1425.04 547.928C1427.43 554.197 1427.79 592.524 1425.01 598.284C1423.92 600.554 1422.98 600.596 1420.72 601.287C1414.12 602.776 1381.37 602.453 1373.86 601.631C1370.94 601.311 1368.5 600.764 1365.94 599.281C1363.87 596.543 1363.55 592.178 1363.42 588.849C1363.12 581.255 1362.8 556.033 1364.51 549.734C1365.03 547.84 1366.36 546.417 1367.65 545.007Z"/><path fill="#121419" d="M1380.51 549.854C1389.33 549.301 1415.45 547.295 1422.49 550.182C1426.19 555.938 1425.65 587.5 1424.03 594.803C1423.64 596.531 1423.45 597.29 1422.2 598.572C1413.82 600.324 1375.92 600.722 1368.52 598.135C1363.56 588.731 1368.14 563.091 1367.07 551.384L1368.73 549.806C1372.51 549.175 1376.68 549.681 1380.51 549.854Z"/><path fill="#1A1C34" d="M1367.07 551.384L1368.73 549.806C1372.51 549.175 1376.68 549.681 1380.51 549.854L1380.15 551.211C1376.18 551.703 1370.94 552.289 1367.07 551.384Z"/><path fill="#101830" d="M1391.33 564.912C1393.18 563.079 1393.96 562.039 1396.54 561.338C1398.49 562.024 1399.16 562.293 1400.2 564.251C1402.23 568.096 1407.8 579.973 1406.52 583.619C1401.45 585.806 1391.36 586.527 1386.09 584.636C1385.46 584.41 1385.09 584.025 1384.62 583.571L1384.45 580.642C1384.12 581.769 1383.83 581.71 1382.91 582.354C1382.85 582.068 1382.73 581.594 1382.73 581.276C1382.72 577.014 1387.36 565.474 1390.18 562.369L1391.22 562.647L1391.33 564.912Z"/><path fill="#090A14" d="M1384.45 580.642C1384.12 581.769 1383.83 581.71 1382.91 582.354C1382.85 582.068 1382.73 581.594 1382.73 581.276C1382.72 577.014 1387.36 565.474 1390.18 562.369L1391.22 562.647L1391.33 564.912C1392 568.591 1388.33 575.997 1386.08 579.029C1385.58 579.707 1385.1 580.113 1384.45 580.642Z"/><path fill="#101830" d="M754.906 664.479C770.681 665.777 786.475 664.349 802.252 664.596C855.621 665.43 909.011 664.642 962.391 664.825C973.096 664.861 1007.03 663.259 1015.44 665.267C1017.29 665.708 1017.96 667.758 1018.84 669.248C1018.84 670.63 1018.98 672.362 1018.69 673.707C1018.33 675.318 1017.5 676.222 1016.09 676.985C1013.66 678.292 756.288 678.546 752.802 677.072C751.495 676.52 750.592 675.442 750.092 674.124C749.387 672.263 749.885 669.471 750.719 667.732C751.718 665.653 752.922 665.316 754.906 664.479Z"/><path fill="#101830" d="M750.645 687.778C804.744 686.957 858.917 687.528 913.023 687.543C946.259 687.552 981.46 686.323 1014.51 687.687C1015.58 687.732 1016.12 688.043 1017 688.613C1018.55 690.676 1019.14 692.658 1018.74 695.249C1018.48 696.897 1018.09 698.046 1016.97 699.27L1015.39 699.623C1002.28 700.518 988.758 699.901 975.602 699.906L901.588 699.92L808.589 699.926C790.529 699.932 772.339 700.407 754.297 699.636C752.111 699.094 752.01 699.139 750.734 697.303C750.184 694.109 750.452 690.993 750.645 687.778Z"/><path fill="#121419" d="M754.297 699.636C756.174 698.42 757.951 698.46 760.097 698.42C820.898 697.289 881.932 698.427 942.751 698.448L992.683 698.456C999.062 698.461 1007.69 697.435 1013.87 698.818C1014.49 698.956 1014.89 699.265 1015.39 699.623C1002.28 700.518 988.758 699.901 975.602 699.906L901.588 699.92L808.589 699.926C790.529 699.932 772.339 700.407 754.297 699.636Z"/><path fill="#101830" d="M755.206 743.207L754.151 743.512C752.564 743.146 751.642 743.014 750.817 741.476C749.829 739.634 750.033 736.711 750.574 734.772C751.11 732.853 751.691 732.356 753.337 731.352L1012.34 731.53C1012.52 731.518 1012.7 731.503 1012.88 731.495C1014.78 731.408 1015.69 731.639 1017.25 732.719C1018.57 734.617 1019.62 736.336 1019.25 738.74C1019 740.43 1018.13 741.342 1016.9 742.435C1013.81 743.597 1010.34 743.597 1007.07 743.688C989.364 744.177 971.551 743.78 953.836 743.786L851.73 743.806L801.202 743.803C792.889 743.801 783.522 744.662 775.364 743.37C768.646 743.257 761.926 743.202 755.206 743.207Z"/><path fill="#090A14" d="M753.337 731.352L1012.34 731.53C1011.72 731.906 1011.78 731.894 1010.96 732.239C1008.32 733.36 782.231 733.799 760.44 733.032C757.812 732.939 755.724 732.438 753.337 731.352Z"/><path fill="#121419" d="M755.206 743.207C756.052 742.52 756.602 742.095 757.721 741.973C763.406 741.351 769.622 741.82 775.347 741.829L810.922 741.905C818.865 741.925 830.367 740.938 837.861 741.743C838.62 741.825 839.13 742.047 839.826 742.339C835.352 744.896 786.131 741.386 775.364 743.37C768.646 743.257 761.926 743.202 755.206 743.207Z"/><path fill="#101830" d="M754.994 721.385C753.103 721.071 751.904 721.15 750.781 719.355C749.809 717.803 749.407 715.238 749.833 713.461C750.129 712.223 750.738 710.862 751.964 710.339C755.249 708.939 986.663 708.883 1009.99 709.499C1012.47 709.564 1014.95 709.701 1017.24 710.696C1018.75 712.832 1018.92 716.117 1018.48 718.662C1018.25 719.966 1017.93 719.97 1017.01 720.829C1009.02 723.053 980.709 722.786 971.795 721.535C964.253 720.847 956.229 721.37 948.64 721.406L908.721 721.431C857.5 721.409 806.206 722.093 754.994 721.385Z"/><path fill="#121419" d="M754.994 721.385C756.45 720.363 757.377 720.177 759.119 720.108C772.548 719.58 786.184 720.049 799.631 720.065L877.51 720.153L959.108 720.174C975.681 720.182 992.32 719.844 1008.88 720.543C996.827 722.685 983.813 719.612 971.795 721.535C964.253 720.847 956.229 721.37 948.64 721.406L908.721 721.431C857.5 721.409 806.206 722.093 754.994 721.385Z"/><path fill="#101830" d="M1110.08 698.499C1109.21 695.726 1108.29 692.326 1109.79 689.595C1110.31 688.658 1110.9 688.083 1111.96 687.84C1119.86 686.031 1199.28 686.529 1202.03 688.829C1203.39 689.971 1204.13 691.485 1204.21 693.271C1204.3 695.077 1203.73 697.414 1202.44 698.744C1201.35 699.867 1200.06 699.685 1198.6 699.839C1187.46 700.067 1115.69 701.673 1110.08 698.499Z"/><path fill="#121419" d="M1110.08 698.499C1124.64 697.344 1139.99 698.364 1154.67 698.407C1169.19 698.449 1184.22 697.566 1198.68 698.616L1199.18 699.121L1198.6 699.839C1187.46 700.067 1115.69 701.673 1110.08 698.499Z"/><path fill="#101830" d="M1112.16 743.38C1110.56 742.761 1109.52 742.513 1108.82 740.744C1108.08 738.856 1108.36 736.253 1109.38 734.526C1110.28 733.012 1111.49 731.942 1113.21 731.536C1119.72 730.008 1196.47 730.525 1201.98 732.234C1203.67 733.987 1204.05 735.109 1203.97 737.674C1203.89 739.841 1203.64 740.198 1202.4 741.872C1196.53 745.049 1186.68 744.21 1180.2 743.382C1157.53 743.111 1134.83 743.451 1112.16 743.38Z"/><path fill="#090A14" d="M1112.16 743.38C1112.99 742.699 1113.6 742.231 1114.7 742.08C1122.58 740.992 1167.51 741.131 1175.53 742.032C1176.9 742.185 1179.11 742.452 1180.2 743.382C1157.53 743.111 1134.83 743.451 1112.16 743.38Z"/><path fill="#101830" d="M1111.32 721.618C1109.87 720.605 1109.14 720.268 1108.91 718.337C1108.6 715.818 1108.98 713.458 1109.86 711.09C1111.64 709.746 1113.1 709.694 1115.29 709.513C1129.52 708.332 1144.66 709.383 1159 709.42C1171.36 709.453 1188.86 708.024 1200.65 710.093C1202.75 710.461 1203.08 711.174 1204.16 712.819C1204.54 715.321 1204.38 717.79 1202.74 719.858C1201.85 720.972 1200.57 721.402 1199.18 721.518C1198.44 721.58 1197.69 721.585 1196.95 721.594L1111.32 721.618Z"/><path fill="#121419" d="M1111.32 721.618C1112.16 720.945 1112.81 720.46 1113.91 720.3C1122.63 719.033 1133.08 720.073 1141.99 720.089C1160.48 720.124 1179.02 719.92 1197.51 720.227C1197.46 721.302 1197.66 720.853 1196.95 721.594L1111.32 721.618Z"/><path fill="#101830" d="M1029.53 677.283C1027.85 675.751 1027.25 674.773 1027.2 672.409C1027.16 670.471 1027.35 667.922 1028.79 666.455C1032.17 662.986 1080.45 664.047 1088.53 664.4C1092.43 664.57 1096.89 664.754 1100.47 666.472C1101.76 668.628 1102.16 670 1101.54 672.481C1101.14 674.114 1100.67 675.76 1099.12 676.616C1098.52 676.951 1097.71 677.136 1097.06 677.321C1089.28 678.14 1080.89 677.578 1073.05 677.569C1058.54 677.637 1044.03 677.542 1029.53 677.283Z"/><path fill="#121419" d="M1029.53 677.283C1034.35 674.188 1087.11 675.8 1096.17 675.854C1096.72 676.445 1096.96 676.489 1097.06 677.321C1089.28 678.14 1080.89 677.578 1073.05 677.569C1058.54 677.637 1044.03 677.542 1029.53 677.283Z"/><path fill="#101830" d="M1049.04 721.611C1048.87 721.634 1048.69 721.66 1048.52 721.682C1042.61 722.416 1033.4 723.31 1028.28 720.016C1026.83 717.861 1026.57 717.134 1027.06 714.456C1027.38 712.668 1027.55 711.87 1028.76 710.489C1033.85 708.678 1095.91 708.575 1099.37 710.155C1101.01 710.902 1101.92 711.871 1102.37 713.675C1102.82 715.479 1102.48 717.355 1101.32 718.812C1099.05 721.655 1093.54 722.164 1090.14 722.231C1079.74 722.435 1068.37 722.767 1058.04 721.582L1049.04 721.611Z"/><path fill="#090A14" d="M1049.04 721.611L1048.17 720.815C1052.06 718.72 1063.76 720.043 1068.59 720.105L1068.86 720.947C1065.24 721.613 1061.62 720.913 1058.04 721.582L1049.04 721.611Z"/><path fill="#101830" d="M1093.95 731.527C1096.35 731.451 1098.27 731.578 1100.57 732.249C1102.14 733.928 1102.34 735.127 1102.4 737.397C1102.44 739.427 1101.79 740.811 1100.43 742.259C1095.05 745.01 1066.33 744.459 1058.83 743.389L1055.05 743.399C1053.06 743.874 1050.7 743.819 1048.65 743.93C1042.66 744.253 1032.73 745.547 1028.07 740.875C1026.58 739.377 1026.18 738.044 1026.13 735.991C1026.5 734.994 1026.9 734.056 1027.72 733.341C1031.64 729.911 1038.94 731.181 1043.76 731.518C1060.48 731.498 1077.23 731.256 1093.95 731.527Z"/><path fill="#090A14" d="M1043.76 731.518C1060.48 731.498 1077.23 731.256 1093.95 731.527C1093.53 731.859 1092.97 731.983 1092.45 732.084C1085.87 733.351 1047.79 734.39 1043.76 731.518Z"/><path fill="#121419" d="M1055.05 743.399L1053.54 742.458C1056.31 741.492 1086 740.967 1088.87 742.338C1085.45 744.4 1064.82 742.552 1058.83 743.389L1055.05 743.399Z"/><path fill="#101830" d="M1026.01 687.738C1036.69 687.659 1093.19 686.022 1098.83 687.943C1099.36 688.124 1100.16 688.849 1100.65 689.186C1101.87 691.146 1102.17 693.126 1101.58 695.391C1101.21 696.815 1100.57 697.584 1099.49 698.539C1098.58 699.37 1098.14 699.465 1096.91 699.71C1090.74 700.939 1038.75 700.538 1031.07 699.699C1029.93 699.574 1029.26 699.186 1028.32 698.573C1026.03 695.658 1028.01 691.229 1026.01 687.738Z"/><path fill="#121419" d="M1028.32 698.573C1032.62 697.7 1098.8 698.109 1099.49 698.539C1098.58 699.37 1098.14 699.465 1096.91 699.71C1090.74 700.939 1038.75 700.538 1031.07 699.699C1029.93 699.574 1029.26 699.186 1028.32 698.573Z"/><path fill="#090A14" d="M678.557 677.044C677.022 676.346 676.377 675.979 675.678 674.387C674.72 672.206 675.215 669.507 676.35 667.465C677.07 666.17 678.171 665.641 679.577 665.368C685.261 664.265 734.879 664.144 739.32 665.423C739.863 665.58 740.751 666.348 741.26 666.678C742.474 668.791 742.946 670.535 742.367 672.964C741.977 674.603 741.417 675.561 740.245 676.74L738.677 677.162C730.172 678.047 721.073 677.473 712.51 677.49C701.294 677.512 689.724 678.084 678.557 677.044Z"/><path fill="#121419" d="M678.557 677.044C679.415 676.553 680.009 676.196 680.994 676.014C685.781 675.128 732.798 675.177 736.841 676.164C737.578 676.345 738.078 676.722 738.677 677.162C730.172 678.047 721.073 677.473 712.51 677.49C701.294 677.512 689.724 678.084 678.557 677.044Z"/><path fill="#090A14" d="M678.884 699.851C677.163 699.064 676.517 698.553 675.546 696.918C675.201 694.483 674.913 692.551 675.629 690.128C677.623 687.869 679.208 687.823 682.183 687.656C690.736 687.175 736.766 686.097 741.507 689.546C742.604 690.345 742.733 692.118 742.763 693.382C742.817 695.578 742.139 697.279 740.862 699.012L738.91 699.673C718.931 700.279 698.873 699.891 678.884 699.851Z"/><path fill="#121419" d="M678.884 699.851C679.839 699.173 680.789 698.725 681.969 698.589C688.775 697.809 731.065 697.393 736.495 698.588C737.408 698.79 738.145 699.155 738.91 699.673C718.931 700.279 698.873 699.891 678.884 699.851Z"/><path fill="#090A14" d="M677.952 731.337C687.496 731.298 735.342 729.572 740.432 732.683C741.5 734.313 742.003 734.952 742.079 736.964C742.189 739.879 741.205 741.292 739.322 743.237C730.833 744.234 681.462 744.855 676.651 741.929C675.577 740.511 674.999 739.964 674.883 738.128C674.7 735.23 676.065 733.352 677.952 731.337Z"/><path fill="#090A14" d="M682.298 709.822C692.707 709.19 703.41 709.626 713.849 709.593C721.329 709.57 730.005 708.737 737.355 709.977C739.071 710.267 740.303 710.557 741.247 712.121C742.508 714.21 742.11 716.842 741.515 719.064C739.866 720.904 738.792 721.047 736.49 721.749C726.046 721.792 685.001 723.553 677.744 721.019C676.416 720.556 675.825 719.839 675.314 718.537C674.384 716.167 675.257 713.865 676.152 711.643C678.137 709.978 679.79 710.15 682.298 709.822Z"/><path fill="#121419" d="M1108.57 675.491C1138.72 676.136 1169.01 674.598 1199.14 675.679L1199.61 677.041C1199.3 677.156 1198.99 677.295 1198.67 677.385C1195.22 678.343 1121.86 678.189 1113.11 677.333C1111.34 677.159 1110.02 676.493 1108.57 675.491Z"/><path fill="#101830" d="M536.447 458.923C538.004 458.758 539.486 458.632 540.983 459.156C543.629 460.082 546.89 461.493 548.058 464.218C549.042 466.516 548.619 469.042 547.531 471.222C544.438 477.418 538.581 479.479 532.49 481.694C534.61 479.237 536.869 477.199 539.359 475.123C541.522 473.361 543.769 471.773 545.003 469.193C544.962 467.156 545.025 466.864 543.807 465.116C541.773 464.466 539.501 463.32 537.415 464.111C538.448 466.371 539.327 467.771 538.733 470.259C537.729 471.168 537.006 471.755 535.64 472.011C534.316 472.258 534.188 471.852 533.089 471.069C532.251 469.436 531.936 468.098 532.024 466.247C532.196 462.664 533.996 461.23 536.447 458.923Z"/></svg>